<?xml version="1.0" encoding="UTF-8"?>
<svg xmlns="http://www.w3.org/2000/svg" xmlns:xlink="http://www.w3.org/1999/xlink" width="96pt" height="96pt" viewBox="0 0 96 96" version="1.1">
<g id="surface7465400">
<path style=" stroke:none;fill-rule:nonzero;fill:rgb(100%,100%,100%);fill-opacity:1;" d="M 23.960938 19.960938 C 22.332031 19.960938 20.867188 20.949219 20.253906 22.457031 C 19.644531 23.964844 20.003906 25.691406 21.171875 26.828125 L 42.34375 48 L 21.171875 69.171875 C 20.125 70.175781 19.707031 71.664062 20.070312 73.066406 C 20.4375 74.46875 21.53125 75.5625 22.933594 75.929688 C 24.335938 76.292969 25.824219 75.875 26.828125 74.828125 L 48 53.65625 L 69.171875 74.828125 C 70.175781 75.875 71.664062 76.292969 73.066406 75.929688 C 74.46875 75.5625 75.5625 74.46875 75.929688 73.066406 C 76.292969 71.664062 75.875 70.175781 74.828125 69.171875 L 53.65625 48 L 74.828125 26.828125 C 76.011719 25.679688 76.367188 23.917969 75.722656 22.402344 C 75.082031 20.882812 73.570312 19.914062 71.921875 19.960938 C 70.882812 19.992188 69.894531 20.425781 69.171875 21.171875 L 48 42.34375 L 26.828125 21.171875 C 26.074219 20.398438 25.039062 19.960938 23.960938 19.960938 Z M 23.960938 19.960938 "/>
</g>
</svg>
