<?xml version="1.0" encoding="UTF-8"?>
<svg xmlns="http://www.w3.org/2000/svg" xmlns:xlink="http://www.w3.org/1999/xlink" width="90pt" height="90pt" viewBox="0 0 90 90" version="1.1">
<g id="surface18764197">
<path style=" stroke:none;fill-rule:nonzero;fill:rgb(100%,100%,100%);fill-opacity:1;" d="M 45 6 C 43.34375 6 42 7.34375 42 9 L 42 9.515625 C 42 10.949219 40.988281 12.230469 39.574219 12.457031 C 38.886719 12.566406 38.207031 12.695312 37.535156 12.847656 C 36.144531 13.167969 34.734375 12.378906 34.191406 11.0625 L 33.992188 10.59375 C 33.355469 9.0625 31.601562 8.335938 30.070312 8.972656 C 28.539062 9.605469 27.8125 11.359375 28.449219 12.890625 L 28.648438 13.371094 C 29.199219 14.691406 28.757812 16.253906 27.539062 17.011719 C 26.949219 17.375 26.378906 17.757812 25.816406 18.160156 C 24.652344 18.988281 23.042969 18.800781 22.03125 17.789062 L 21.667969 17.425781 C 20.496094 16.253906 18.597656 16.253906 17.425781 17.425781 C 16.253906 18.597656 16.253906 20.496094 17.425781 21.667969 L 17.789062 22.03125 C 18.800781 23.042969 18.988281 24.648438 18.160156 25.816406 C 17.757812 26.378906 17.375 26.949219 17.011719 27.539062 C 16.253906 28.757812 14.6875 29.203125 13.367188 28.652344 L 12.890625 28.453125 C 11.359375 27.820312 9.601562 28.546875 8.964844 30.078125 C 8.332031 31.605469 9.058594 33.359375 10.589844 33.996094 L 11.058594 34.191406 C 12.375 34.734375 13.167969 36.144531 12.851562 37.535156 C 12.695312 38.207031 12.5625 38.886719 12.453125 39.574219 C 12.226562 40.988281 10.949219 42 9.515625 42 L 9 42 C 7.34375 42 6 43.34375 6 45 C 6 46.65625 7.34375 48 9 48 L 9.515625 48 C 10.949219 48 12.230469 49.011719 12.457031 50.425781 C 12.566406 51.113281 12.695312 51.792969 12.847656 52.464844 C 13.167969 53.855469 12.378906 55.265625 11.0625 55.808594 L 10.59375 56.007812 C 9.0625 56.644531 8.335938 58.398438 8.972656 59.929688 C 9.605469 61.460938 11.359375 62.1875 12.890625 61.550781 L 13.371094 61.351562 C 14.695312 60.804688 16.257812 61.246094 17.015625 62.460938 C 17.382812 63.050781 17.761719 63.625 18.164062 64.1875 C 18.996094 65.351562 18.804688 66.964844 17.796875 67.972656 L 17.425781 68.335938 C 16.253906 69.511719 16.253906 71.410156 17.425781 72.578125 C 18.597656 73.75 20.496094 73.753906 21.667969 72.578125 L 22.039062 72.214844 C 23.046875 71.207031 24.652344 71.011719 25.816406 71.839844 C 26.378906 72.242188 26.957031 72.628906 27.546875 72.996094 C 28.761719 73.753906 29.207031 75.316406 28.65625 76.640625 L 28.457031 77.113281 C 27.824219 78.644531 28.550781 80.40625 30.082031 81.042969 C 31.613281 81.675781 33.367188 80.949219 34 79.417969 L 34.195312 78.949219 C 34.742188 77.632812 36.148438 76.839844 37.539062 77.15625 C 38.214844 77.308594 38.894531 77.445312 39.578125 77.554688 C 40.988281 77.773438 42 79.050781 42 80.484375 L 42 81 C 42 82.65625 43.34375 84 45 84 C 46.65625 84 48 82.65625 48 81 L 48 80.484375 C 48 79.050781 49.011719 77.769531 50.425781 77.542969 C 51.113281 77.433594 51.792969 77.304688 52.464844 77.152344 C 53.855469 76.832031 55.265625 77.621094 55.808594 78.9375 L 56.007812 79.40625 C 56.644531 80.9375 58.398438 81.664062 59.929688 81.03125 C 61.460938 80.394531 62.1875 78.640625 61.550781 77.109375 L 61.351562 76.628906 C 60.804688 75.304688 61.246094 73.742188 62.460938 72.984375 C 63.050781 72.617188 63.625 72.238281 64.1875 71.835938 C 65.351562 71.003906 66.964844 71.195312 67.972656 72.203125 L 68.335938 72.574219 C 69.511719 73.746094 71.410156 73.746094 72.578125 72.574219 C 73.75 71.402344 73.753906 69.503906 72.578125 68.332031 L 72.214844 67.960938 C 71.207031 66.953125 71.011719 65.347656 71.839844 64.183594 C 72.242188 63.621094 72.628906 63.042969 72.996094 62.453125 C 73.753906 61.238281 75.316406 60.792969 76.640625 61.339844 L 77.113281 61.539062 C 78.644531 62.175781 80.40625 61.449219 81.039062 59.917969 C 81.675781 58.386719 80.949219 56.632812 79.417969 55.996094 L 78.949219 55.804688 C 77.632812 55.257812 76.839844 53.851562 77.15625 52.457031 C 77.308594 51.785156 77.445312 51.105469 77.554688 50.417969 C 77.773438 49.011719 79.050781 48 80.484375 48 L 81 48 C 82.65625 48 84 46.65625 84 45 C 84 43.34375 82.65625 42 81 42 L 80.484375 42 C 79.050781 42 77.769531 40.988281 77.542969 39.574219 C 77.433594 38.886719 77.304688 38.207031 77.148438 37.535156 C 76.832031 36.144531 77.621094 34.734375 78.9375 34.1875 L 79.40625 33.988281 C 80.9375 33.355469 81.664062 31.601562 81.027344 30.070312 C 80.394531 28.539062 78.640625 27.8125 77.109375 28.445312 L 76.628906 28.644531 C 75.304688 29.195312 73.742188 28.753906 72.984375 27.539062 C 72.617188 26.949219 72.238281 26.375 71.835938 25.808594 C 71.003906 24.648438 71.195312 23.035156 72.203125 22.023438 L 72.574219 21.660156 C 73.746094 20.488281 73.746094 18.589844 72.574219 17.417969 C 71.402344 16.246094 69.503906 16.246094 68.332031 17.417969 L 67.96875 17.789062 C 66.957031 18.800781 65.347656 18.996094 64.183594 18.164062 C 63.621094 17.761719 63.042969 17.375 62.453125 17.007812 C 61.238281 16.253906 60.796875 14.6875 61.347656 13.367188 L 61.546875 12.890625 C 62.179688 11.359375 61.453125 9.601562 59.921875 8.964844 C 58.394531 8.332031 56.640625 9.058594 56.003906 10.589844 L 55.804688 11.058594 C 55.257812 12.375 53.851562 13.167969 52.457031 12.847656 C 51.785156 12.695312 51.105469 12.5625 50.417969 12.449219 C 49.011719 12.226562 48 10.949219 48 9.515625 L 48 9 C 48 7.34375 46.65625 6 45 6 Z M 45 21 C 57.234375 21 67.316406 30.164062 68.796875 42 L 50.1875 42 C 49.117188 40.148438 47.140625 39.003906 45 39 C 45 39 44.996094 39 44.992188 39 L 35.6875 22.875 C 38.554688 21.667969 41.699219 21 45 21 Z M 30.507812 25.898438 L 39.808594 42 C 39.28125 42.910156 39 43.945312 39 45 C 39.003906 46.050781 39.28125 47.078125 39.808594 47.988281 L 30.503906 64.09375 C 24.738281 59.710938 21 52.800781 21 45 C 21 37.195312 24.742188 30.28125 30.507812 25.898438 Z M 50.191406 48 L 68.796875 48 C 67.316406 59.835938 57.234375 69 45 69 C 41.699219 69 38.554688 68.332031 35.691406 67.125 L 44.996094 51 C 44.996094 51 45 51 45 51 C 47.140625 51 49.121094 49.855469 50.191406 48 Z M 50.191406 48 "/>
</g>
</svg>
